<?xml version="1.0" encoding="UTF-8" standalone="no"?>
<!-- Created with Inkscape (http://www.inkscape.org/) -->

<svg
   xmlns:dc="http://purl.org/dc/elements/1.1/"
   xmlns:cc="http://creativecommons.org/ns#"
   xmlns:rdf="http://www.w3.org/1999/02/22-rdf-syntax-ns#"
   xmlns:svg="http://www.w3.org/2000/svg"
   xmlns="http://www.w3.org/2000/svg"
   xmlns:sodipodi="http://sodipodi.sourceforge.net/DTD/sodipodi-0.dtd"
   xmlns:inkscape="http://www.inkscape.org/namespaces/inkscape"
   version="1.1"
   id="svg2"
   xml:space="preserve"
   width="1121.3333"
   height="794.66669"
   viewBox="0 0 1121.3333 794.66669"
   sodipodi:docname="Nix-odml_DataModel_v1.5.0.svg"
   inkscape:version="0.92.3 (2405546, 2018-03-11)"><metadata
     id="metadata8"><rdf:RDF><cc:Work
         rdf:about=""><dc:format>image/svg+xml</dc:format><dc:type
           rdf:resource="http://purl.org/dc/dcmitype/StillImage" /><dc:title></dc:title></cc:Work></rdf:RDF></metadata><defs
     id="defs6"><clipPath
       clipPathUnits="userSpaceOnUse"
       id="clipPath18"><path
         d="M 0,0 H 841 V 595.67834 H 0 Z"
         id="path16"
         inkscape:connector-curvature="0"
         style="clip-rule:evenodd" /></clipPath><clipPath
       clipPathUnits="userSpaceOnUse"
       id="clipPath32"><path
         d="M 0,0 H 841 V 594.95892 H 0 Z"
         id="path30"
         inkscape:connector-curvature="0"
         style="clip-rule:evenodd" /></clipPath><clipPath
       clipPathUnits="userSpaceOnUse"
       id="clipPath40"><path
         d="M 0,0 H 116 V 122 H 0 Z"
         id="path38"
         inkscape:connector-curvature="0" /></clipPath><clipPath
       clipPathUnits="userSpaceOnUse"
       id="clipPath136"><path
         d="M 0,0 H 117 V 144 H 0 Z"
         id="path134"
         inkscape:connector-curvature="0" /></clipPath><clipPath
       clipPathUnits="userSpaceOnUse"
       id="clipPath240"><path
         d="M 0,0 H 67 V 144 H 0 Z"
         id="path238"
         inkscape:connector-curvature="0" /></clipPath><clipPath
       clipPathUnits="userSpaceOnUse"
       id="clipPath366"><path
         d="M 0,0 H 102 V 74 H 0 Z"
         id="path364"
         inkscape:connector-curvature="0" /></clipPath></defs><sodipodi:namedview
     pagecolor="#ffffff"
     bordercolor="#666666"
     borderopacity="1"
     objecttolerance="10"
     gridtolerance="10"
     guidetolerance="10"
     inkscape:pageopacity="0"
     inkscape:pageshadow="2"
     inkscape:window-width="2513"
     inkscape:window-height="1385"
     id="namedview4"
     showgrid="false"
     inkscape:zoom="0.29697986"
     inkscape:cx="168.38413"
     inkscape:cy="397.33334"
     inkscape:window-x="47"
     inkscape:window-y="27"
     inkscape:window-maximized="1"
     inkscape:current-layer="g10" /><g
     id="g10"
     inkscape:groupmode="layer"
     inkscape:label="Nix-odml_DataModel_v1.5.0"
     transform="matrix(1.3333333,0,0,1.3333333,0,2.32e-5)"><g
       id="g12"><g
         id="g14"
         clip-path="url(#clipPath18)"><g
           id="g20"
           transform="scale(0.71941829)"><path
             d="M 0,0 H 1169 V 828 H 0 Z"
             style="fill:#ffffff;fill-opacity:1;fill-rule:nonzero;stroke:none"
             id="path22"
             inkscape:connector-curvature="0" /><path
             d="M 0,0 H 1169 V 827 H 0 Z"
             style="fill:#ffffff;fill-opacity:1;fill-rule:nonzero;stroke:none"
             id="path24"
             inkscape:connector-curvature="0" /></g></g></g><g
       id="g26"><g
         id="g28"
         clip-path="url(#clipPath32)"><g
           id="g34"
           transform="translate(374,207)"><g
             id="g36" /><g
             id="g50"><g
               clip-path="url(#clipPath40)"
               id="g48"
               style="opacity:0.24705882"><g
                 transform="matrix(0.71941829,0,0,0.71941829,-372.20145,-204.48204)"
                 id="g46"><path
                   d="M 518,286 H 678 V 453 H 518 Z"
                   style="fill:#000000;fill-opacity:1;fill-rule:nonzero;stroke:none"
                   id="path42"
                   inkscape:connector-curvature="0" /><path
                   d="M 518,286 H 678 V 453 H 518 Z"
                   style="fill:none;stroke:#000000;stroke-width:1;stroke-linecap:butt;stroke-linejoin:miter;stroke-miterlimit:10;stroke-dasharray:none;stroke-opacity:1"
                   id="path44"
                   inkscape:connector-curvature="0" /></g></g></g></g><g
           id="g52"
           transform="matrix(0.71941829,0,0,0.71941829,0.35970914,0.35970914)"><path
             d="M 518,286 H 678 V 453 H 518 Z"
             style="fill:#ffffff;fill-opacity:1;fill-rule:nonzero;stroke:none"
             id="path54"
             inkscape:connector-curvature="0" /><path
             d="M 518,286 H 678 V 453 H 518 Z"
             style="fill:none;stroke:#3333ff;stroke-width:1;stroke-linecap:butt;stroke-linejoin:miter;stroke-miterlimit:10;stroke-dasharray:none;stroke-opacity:1"
             id="path56"
             inkscape:connector-curvature="0" /></g><g
           id="g58"
           transform="matrix(0.71941829,0,0,0.71941829,373.37808,206.47305)"><path
             d="m 0,24 h 159 v 1 H 0 Z"
             style="fill:#9a9a9a;fill-opacity:1;fill-rule:nonzero;stroke:none"
             id="path60"
             inkscape:connector-curvature="0" /><path
             d="m 0,25 h 159 v 1 H 0 Z"
             style="fill:#eeeeee;fill-opacity:1;fill-rule:nonzero;stroke:none"
             id="path62"
             inkscape:connector-curvature="0" /><path
             d="m 158,25 v 1 h 1 v -2"
             style="fill:#eeeeee;fill-opacity:1;fill-rule:nonzero;stroke:none"
             id="path64"
             inkscape:connector-curvature="0" /><path
             d="m 0,24 v 2 l 1,-1 v -1"
             style="fill:#9a9a9a;fill-opacity:1;fill-rule:nonzero;stroke:none"
             id="path66"
             inkscape:connector-curvature="0" /><text
             transform="translate(57.828125,15)"
             style="font-variant:normal;font-weight:bold;font-size:12px;font-family:Helvetica;-inkscape-font-specification:Helvetica-Bold;writing-mode:lr-tb;fill:#000000;fill-opacity:1;fill-rule:nonzero;stroke:none"
             id="text70"><tspan
               x="0 8.0039062 14.677734 21.351562 25.347656 28.681641 36.011719"
               y="0"
               sodipodi:role="line"
               id="tspan68">Section</tspan></text>
<text
             transform="translate(0,43)"
             style="font-variant:normal;font-weight:normal;font-size:12px;font-family:Helvetica;-inkscape-font-specification:Helvetica;writing-mode:lr-tb;fill:#000000;fill-opacity:1;fill-rule:nonzero;stroke:none"
             id="text74"><tspan
               x="0 3.3339844 10.341797 13.675781 16.341797 23.015625 26.349609 29.683594 37.6875 41.021484 45.017578 47.683594 54.357422"
               y="0"
               sodipodi:role="line"
               id="tspan72"> + id: String</tspan></text>
<text
             transform="translate(0,57)"
             style="font-variant:normal;font-weight:normal;font-size:12px;font-family:Helvetica;-inkscape-font-specification:Helvetica;writing-mode:lr-tb;fill:#000000;fill-opacity:1;fill-rule:nonzero;stroke:none"
             id="text78"><tspan
               x="0 3.3339844 10.341797 13.675781 17.009766 23.009766 29.683594 36.357422 39.691406 43.025391 51.029297 54.363281 58.359375 61.025391 67.699219"
               y="0"
               sodipodi:role="line"
               id="tspan76"> + type: String</tspan></text>
<text
             transform="translate(0,71)"
             style="font-variant:normal;font-weight:normal;font-size:12px;font-family:Helvetica;-inkscape-font-specification:Helvetica;writing-mode:lr-tb;fill:#000000;fill-opacity:1;fill-rule:nonzero;stroke:none"
             id="text82"><tspan
               x="0 3.3339844 10.341797 13.675781 20.349609 27.023438 37.019531 43.693359 47.027344 50.361328 58.365234 61.699219 65.695312 68.361328 75.035156"
               y="0"
               sodipodi:role="line"
               id="tspan80"> + name: String</tspan></text>
<text
             transform="translate(0,85)"
             style="font-variant:normal;font-weight:normal;font-size:12px;font-family:Helvetica;-inkscape-font-specification:Helvetica;writing-mode:lr-tb;fill:#000000;fill-opacity:1;fill-rule:nonzero;stroke:none"
             id="text86"><tspan
               x="0 3.3339844 10.341797 13.675781 20.349609 27.023438 33.023438 39.697266 42.363281 45.697266 48.363281 55.037109 61.710938 65.044922 68.378906 76.382812 79.716797 83.712891 86.378906 93.052734"
               y="0"
               sodipodi:role="line"
               id="tspan84"> + deﬁnition: String</tspan></text>
<text
             transform="translate(0,99)"
             style="font-variant:normal;font-weight:normal;font-size:12px;font-family:Helvetica;-inkscape-font-specification:Helvetica;writing-mode:lr-tb;fill:#000000;fill-opacity:1;fill-rule:nonzero;stroke:none"
             id="text90"><tspan
               x="0 3.3339844 10.341797 13.675781 17.671875 24.345703 27.679688 34.353516 38.349609 45.023438 51.697266 57.697266 64.371094 67.705078 71.039062 79.042969 82.376953 86.373047 89.039062 95.712891"
               y="0"
               sodipodi:role="line"
               id="tspan88"> + reference: String</tspan></text>
<text
             transform="translate(0,113)"
             style="font-variant:normal;font-weight:normal;font-size:12px;font-family:Helvetica;-inkscape-font-specification:Helvetica;writing-mode:lr-tb;fill:#000000;fill-opacity:1;fill-rule:nonzero;stroke:none"
             id="text94"><tspan
               x="0 3.3339844 10.341797 13.675781 17.671875 24.345703 31.019531 37.693359 43.693359 46.359375 49.693359 56.367188 60.363281 66.363281 69.697266 73.03125 81.697266 90.363281"
               y="0"
               sodipodi:role="line"
               id="tspan92"> + repository: URI</tspan></text>
<text
             transform="translate(0,127)"
             style="font-variant:normal;font-weight:normal;font-size:12px;font-family:Helvetica;-inkscape-font-specification:Helvetica;writing-mode:lr-tb;fill:#000000;fill-opacity:1;fill-rule:nonzero;stroke:none"
             id="text98"><tspan
               x="0 3.3339844 10.341797 13.675781 16.341797 19.007812 25.681641 31.681641 35.015625 38.349609 46.353516 53.027344 59.027344 62.361328 65.027344 71.701172"
               y="0"
               sodipodi:role="line"
               id="tspan96"> + link: Section</tspan></text>
<text
             transform="translate(0,141)"
             style="font-variant:normal;font-weight:normal;font-size:12px;font-family:Helvetica;-inkscape-font-specification:Helvetica;writing-mode:lr-tb;fill:#000000;fill-opacity:1;fill-rule:nonzero;stroke:none"
             id="text102"><tspan
               x="0 3.3339844 10.341797 13.675781 19.675781 26.349609 32.349609 35.683594 38.349609 45.023438 51.697266 57.697266 61.03125 64.365234 72.369141 79.042969 85.042969 88.376953 91.042969 97.716797 104.39062 107.72461"
               y="0"
               sodipodi:role="line"
               id="tspan100"> + sections: Section[]</tspan></text>
<text
             transform="translate(0,155)"
             style="font-variant:normal;font-weight:normal;font-size:12px;font-family:Helvetica;-inkscape-font-specification:Helvetica;writing-mode:lr-tb;fill:#000000;fill-opacity:1;fill-rule:nonzero;stroke:none"
             id="text106"><tspan
               x="0 3.3339844 10.341797 13.675781 20.349609 24.345703 31.019531 37.693359 44.367188 48.363281 51.697266 54.363281 61.037109 67.037109 70.371094 73.705078 81.708984 85.705078 92.378906 99.052734 105.72656 109.72266 113.05664 119.05664 122.39062"
               y="0"
               sodipodi:role="line"
               id="tspan104"> + properties: Property[]</tspan></text>
</g><g
           id="g108"
           transform="matrix(0.71941829,0,0,0.71941829,0.35970914,0.35970914)"><path
             d="M 534.01001,510 H 528 v -38 h 170 v -92 h -20 v -10"
             style="fill:none;stroke:#3333ff;stroke-width:1;stroke-linecap:butt;stroke-linejoin:miter;stroke-miterlimit:10;stroke-dasharray:none;stroke-opacity:1"
             id="path110"
             inkscape:connector-curvature="0" /><path
             d="m 549.01001,510 -7.5,4.40997 -7.5,-4.40997 7.5,-4.41 z"
             style="fill:none;stroke:#3333ff;stroke-width:1;stroke-linecap:butt;stroke-linejoin:miter;stroke-miterlimit:10;stroke-dasharray:none;stroke-opacity:1"
             id="path112"
             inkscape:connector-curvature="0" /></g><g
           id="g114"
           transform="matrix(0.71941829,0,0,0.71941829,494.24036,261.14883)"><path
             d="M 0,0 H 6 V 12 H 0 Z"
             style="fill:#ffffff;fill-opacity:1;fill-rule:nonzero;stroke:none"
             id="path116"
             inkscape:connector-curvature="0" /><text
             transform="translate(0,10)"
             style="font-variant:normal;font-weight:normal;font-size:10px;font-family:Helvetica;-inkscape-font-specification:Helvetica;writing-mode:lr-tb;fill:#000000;fill-opacity:1;fill-rule:nonzero;stroke:none"
             id="text120"><tspan
               x="0"
               y="0"
               id="tspan118">1</tspan></text>
</g><g
           id="g122"
           transform="matrix(0.71941829,0,0,0.71941829,374.81693,370.50043)"><path
             d="M 0,0 H 17 V 12 H 0 Z"
             style="fill:#ffffff;fill-opacity:1;fill-rule:nonzero;stroke:none"
             id="path124"
             inkscape:connector-curvature="0" /><text
             transform="translate(0,10)"
             style="font-variant:normal;font-weight:normal;font-size:10px;font-family:Helvetica;-inkscape-font-specification:Helvetica;writing-mode:lr-tb;fill:#000000;fill-opacity:1;fill-rule:nonzero;stroke:none"
             id="text128"><tspan
               x="0 5.5615234 8.3398438 11.118164"
               y="0"
               sodipodi:role="line"
               id="tspan126">0..n</tspan></text>
</g><g
           id="g130"
           transform="translate(396,356)"><g
             id="g132" /><g
             id="g146"><g
               clip-path="url(#clipPath136)"
               id="g144"
               style="opacity:0.24705882"><g
                 transform="matrix(0.71941829,0,0,0.71941829,-394.20145,-353.48203)"
                 id="g142"><path
                   d="M 549,492 H 709 V 690 H 549 Z"
                   style="fill:#000000;fill-opacity:1;fill-rule:nonzero;stroke:none"
                   id="path138"
                   inkscape:connector-curvature="0" /><path
                   d="M 549,492 H 709 V 690 H 549 Z"
                   style="fill:none;stroke:#000000;stroke-width:1;stroke-linecap:butt;stroke-linejoin:miter;stroke-miterlimit:10;stroke-dasharray:none;stroke-opacity:1"
                   id="path140"
                   inkscape:connector-curvature="0" /></g></g></g></g><g
           id="g148"
           transform="matrix(0.71941829,0,0,0.71941829,0.35970914,0.35970914)"><path
             d="M 549,492 H 709 V 690 H 549 Z"
             style="fill:#ffffff;fill-opacity:1;fill-rule:nonzero;stroke:none"
             id="path150"
             inkscape:connector-curvature="0" /><path
             d="M 549,492 H 709 V 690 H 549 Z"
             style="fill:none;stroke:#3333ff;stroke-width:1;stroke-linecap:butt;stroke-linejoin:miter;stroke-miterlimit:10;stroke-dasharray:none;stroke-opacity:1"
             id="path152"
             inkscape:connector-curvature="0" /></g><g
           id="g154"
           transform="matrix(0.71941829,0,0,0.71941829,395.68005,354.67322)"><path
             d="m 0,24 h 159 v 1 H 0 Z"
             style="fill:#9a9a9a;fill-opacity:1;fill-rule:nonzero;stroke:none"
             id="path156"
             inkscape:connector-curvature="0" /><path
             d="m 0,25 h 159 v 1 H 0 Z"
             style="fill:#eeeeee;fill-opacity:1;fill-rule:nonzero;stroke:none"
             id="path158"
             inkscape:connector-curvature="0" /><path
             d="m 158,25 v 1 h 1 v -2"
             style="fill:#eeeeee;fill-opacity:1;fill-rule:nonzero;stroke:none"
             id="path160"
             inkscape:connector-curvature="0" /><path
             d="m 0,24 v 2 l 1,-1 v -1"
             style="fill:#9a9a9a;fill-opacity:1;fill-rule:nonzero;stroke:none"
             id="path162"
             inkscape:connector-curvature="0" /><text
             transform="translate(54.828125,15)"
             style="font-variant:normal;font-weight:bold;font-size:12px;font-family:Helvetica;-inkscape-font-specification:Helvetica-Bold;writing-mode:lr-tb;fill:#000000;fill-opacity:1;fill-rule:nonzero;stroke:none"
             id="text166"><tspan
               x="0 8.0039062 12.673828 20.003906 27.333984 34.007812 38.677734 42.673828"
               y="0"
               sodipodi:role="line"
               id="tspan164">Property</tspan></text>
<text
             transform="translate(0,43)"
             style="font-variant:normal;font-weight:normal;font-size:12px;font-family:Helvetica;-inkscape-font-specification:Helvetica;writing-mode:lr-tb;fill:#000000;fill-opacity:1;fill-rule:nonzero;stroke:none"
             id="text170"><tspan
               x="0 3.3339844 10.341797 13.675781 16.341797 23.015625 26.349609 29.683594 37.6875 41.021484 45.017578 47.683594 54.357422"
               y="0"
               sodipodi:role="line"
               id="tspan168"> + id: String</tspan></text>
<text
             transform="translate(0,57)"
             style="font-variant:normal;font-weight:normal;font-size:12px;font-family:Helvetica;-inkscape-font-specification:Helvetica;writing-mode:lr-tb;fill:#000000;fill-opacity:1;fill-rule:nonzero;stroke:none"
             id="text174"><tspan
               x="0 3.3339844 10.341797 13.675781 20.349609 27.023438 37.019531 43.693359 47.027344 50.361328 58.365234 61.699219 65.695312 68.361328 75.035156"
               y="0"
               sodipodi:role="line"
               id="tspan172"> + name: String</tspan></text>
<text
             transform="translate(0,71)"
             style="font-variant:normal;font-weight:normal;font-size:12px;font-family:Helvetica;-inkscape-font-specification:Helvetica;writing-mode:lr-tb;fill:#000000;fill-opacity:1;fill-rule:nonzero;stroke:none"
             id="text178"><tspan
               x="0 3.3339844 10.341797 13.675781 20.349609 27.023438 33.023438 39.697266 42.363281 45.697266 48.363281 55.037109 61.710938 65.044922 68.378906 76.382812 79.716797 83.712891 86.378906 93.052734"
               y="0"
               sodipodi:role="line"
               id="tspan176"> + deﬁnition: String</tspan></text>
<text
             transform="translate(0,85)"
             style="font-variant:normal;font-weight:normal;font-size:12px;font-family:Helvetica;-inkscape-font-specification:Helvetica;writing-mode:lr-tb;fill:#000000;fill-opacity:1;fill-rule:nonzero;stroke:none"
             id="text182"><tspan
               x="0 3.3339844 10.341797 13.675781 20.349609 27.023438 29.689453 33.023438 36.357422 39.691406 47.695312 51.029297 55.025391 57.691406 64.365234"
               y="0"
               sodipodi:role="line"
               id="tspan180"> + unit: String</tspan></text>
<text
             transform="translate(0,99)"
             style="font-variant:normal;font-weight:normal;font-size:12px;font-family:Helvetica;-inkscape-font-specification:Helvetica;writing-mode:lr-tb;fill:#000000;fill-opacity:1;fill-rule:nonzero;stroke:none"
             id="text186"><tspan
               x="0 3.3339844 10.341797 13.675781 20.349609 27.023438 33.023438 39.697266 43.693359 47.027344 53.701172 56.367188 63.041016 66.375 72.375 75.708984 79.042969 85.716797 92.390625 99.064453 105.73828 108.4043"
               y="0"
               sodipodi:role="line"
               id="tspan184"> + uncertainty: double</tspan></text>
<text
             transform="translate(0,113)"
             style="font-variant:normal;font-weight:normal;font-size:12px;font-family:Helvetica;-inkscape-font-specification:Helvetica;writing-mode:lr-tb;fill:#000000;fill-opacity:1;fill-rule:nonzero;stroke:none"
             id="text190"><tspan
               x="0 3.3339844 10.341797 13.675781 19.675781 26.349609 29.015625 35.689453 42.363281 48.363281 51.697266 55.03125 63.697266 72.363281 80.367188 84.363281 88.359375 95.033203"
               y="0"
               sodipodi:role="line"
               id="tspan188"> + values: NDArray</tspan></text>
<text
             transform="translate(0,127)"
             style="font-variant:normal;font-weight:normal;font-size:12px;font-family:Helvetica;-inkscape-font-specification:Helvetica;writing-mode:lr-tb;fill:#000000;fill-opacity:1;fill-rule:nonzero;stroke:none"
             id="text194"><tspan
               x="0 3.3339844 10.341797 13.675781 20.349609 27.023438 37.019531 39.685547 46.359375 49.693359 55.693359 62.367188 69.041016 72.375 75.708984 85.042969 91.716797 101.71289 104.37891 111.05273 117.05273 123.72656"
               y="0"
               sodipodi:role="line"
               id="tspan192"> + odml_type: OdmlType</tspan></text>
<text
             transform="translate(0,141)"
             style="font-variant:normal;font-weight:normal;font-size:12px;font-family:Helvetica;-inkscape-font-specification:Helvetica;writing-mode:lr-tb;fill:#000000;fill-opacity:1;fill-rule:nonzero;stroke:none"
             id="text198"><tspan
               x="0 3.3339844 10.341797 13.675781 19.675781 26.349609 29.015625 35.689453 42.363281 49.037109 55.710938 59.707031 62.373047 69.046875 71.712891 78.386719 81.720703 85.054688 93.058594 96.392578 100.38867 103.05469 109.72852"
               y="0"
               sodipodi:role="line"
               id="tspan196"> + value_origin: String</tspan></text>
<text
             transform="translate(0,155)"
             style="font-variant:normal;font-weight:normal;font-size:12px;font-family:Helvetica;-inkscape-font-specification:Helvetica;writing-mode:lr-tb;fill:#000000;fill-opacity:1;fill-rule:nonzero;stroke:none"
             id="text202"><tspan
               x="0 3.3339844 10.341797 13.675781 20.349609 27.023438 33.697266 40.371094 47.044922 53.71875 60.392578 67.066406 73.066406 79.066406 82.400391 85.734375 93.738281 97.072266 101.06836 103.73438 110.4082"
               y="0"
               sodipodi:role="line"
               id="tspan200"> + dependency: String</tspan></text>
<text
             transform="translate(0,169)"
             style="font-variant:normal;font-weight:normal;font-size:12px;font-family:Helvetica;-inkscape-font-specification:Helvetica;writing-mode:lr-tb;fill:#000000;fill-opacity:1;fill-rule:nonzero;stroke:none"
             id="text206"><tspan
               x="0 3.3339844 10.341797 13.675781 20.349609 27.023438 33.697266 40.371094 47.044922 53.71875 60.392578 67.066406 73.066406 79.066406 85.740234 91.740234 98.414062 101.08008 107.75391 114.42773 117.76172 121.0957 129.09961 132.43359 136.42969 139.0957 145.76953"
               y="0"
               sodipodi:role="line"
               id="tspan204"> + dependency_value: String</tspan></text>
<text
             transform="translate(0,183)"
             style="font-variant:normal;font-weight:normal;font-size:12px;font-family:Helvetica;-inkscape-font-specification:Helvetica;writing-mode:lr-tb;fill:#000000;fill-opacity:1;fill-rule:nonzero;stroke:none"
             id="text210"><tspan
               x="0 3.3339844 10.341797 13.675781 17.671875 24.345703 27.679688 34.353516 38.349609 45.023438 51.697266 57.697266 64.371094 67.705078 71.039062 79.042969 82.376953 86.373047 89.039062 95.712891"
               y="0"
               sodipodi:role="line"
               id="tspan208"> + reference: String</tspan></text>
</g><g
           id="g212"
           transform="matrix(0.71941829,0,0,0.71941829,0.35970914,0.35970914)"><path
             d="M 735.01001,591 H 731 709"
             style="fill:none;stroke:#3333ff;stroke-width:1;stroke-linecap:butt;stroke-linejoin:miter;stroke-miterlimit:10;stroke-dasharray:none;stroke-opacity:1"
             id="path214"
             inkscape:connector-curvature="0" /><path
             d="m 750.01001,591 -7.5,4.40997 -7.5,-4.40997 7.5,-4.40997 z"
             style="fill:none;stroke:#3333ff;stroke-width:1;stroke-linecap:butt;stroke-linejoin:miter;stroke-miterlimit:10;stroke-dasharray:none;stroke-opacity:1"
             id="path216"
             inkscape:connector-curvature="0" /></g><g
           id="g218"
           transform="matrix(0.71941829,0,0,0.71941829,515.82294,415.10434)"><path
             d="M 0,0 H 6 V 12 H 0 Z"
             style="fill:#ffffff;fill-opacity:1;fill-rule:nonzero;stroke:none"
             id="path220"
             inkscape:connector-curvature="0" /><text
             transform="translate(0,10)"
             style="font-variant:normal;font-weight:normal;font-size:10px;font-family:Helvetica;-inkscape-font-specification:Helvetica;writing-mode:lr-tb;fill:#000000;fill-opacity:1;fill-rule:nonzero;stroke:none"
             id="text224"><tspan
               x="0"
               y="0"
               id="tspan222">1</tspan></text>
</g><g
           id="g226"
           transform="matrix(0.71941829,0,0,0.71941829,531.65009,413.66553)"><path
             d="M 0,0 H 6 V 12 H 0 Z"
             style="fill:#ffffff;fill-opacity:1;fill-rule:nonzero;stroke:none"
             id="path228"
             inkscape:connector-curvature="0" /><text
             transform="translate(0,10)"
             style="font-variant:normal;font-weight:normal;font-size:10px;font-family:Helvetica;-inkscape-font-specification:Helvetica;writing-mode:lr-tb;fill:#000000;fill-opacity:1;fill-rule:nonzero;stroke:none"
             id="text232"><tspan
               x="0"
               y="0"
               id="tspan230">1</tspan></text>
</g><g
           id="g234"
           transform="translate(541,356)"><g
             id="g236" /><g
             id="g250"><g
               clip-path="url(#clipPath240)"
               id="g248"
               style="opacity:0.24705882"><g
                 transform="matrix(0.71941829,0,0,0.71941829,-539.20148,-353.48203)"
                 id="g246"><path
                   d="m 751,492 h 90 v 198 h -90 z"
                   style="fill:#000000;fill-opacity:1;fill-rule:nonzero;stroke:none"
                   id="path242"
                   inkscape:connector-curvature="0" /><path
                   d="m 751,492 h 90 v 198 h -90 z"
                   style="fill:none;stroke:#000000;stroke-width:1;stroke-linecap:butt;stroke-linejoin:miter;stroke-miterlimit:10;stroke-dasharray:none;stroke-opacity:1"
                   id="path244"
                   inkscape:connector-curvature="0" /></g></g></g></g><g
           id="g252"
           transform="matrix(0.71941829,0,0,0.71941829,0.35970914,0.35970914)"><path
             d="m 751,492 h 90 v 198 h -90 z"
             style="fill:#ffffff;fill-opacity:1;fill-rule:nonzero;stroke:none"
             id="path254"
             inkscape:connector-curvature="0" /><path
             d="m 751,492 h 90 v 198 h -90 z"
             style="fill:none;stroke:#3333ff;stroke-width:1;stroke-linecap:butt;stroke-linejoin:miter;stroke-miterlimit:10;stroke-dasharray:none;stroke-opacity:1"
             id="path256"
             inkscape:connector-curvature="0" /></g><g
           id="g258"
           transform="matrix(0.71941829,0,0,0.71941829,541.00256,354.67322)"><path
             d="m 0,42 h 89 v 1 H 0 Z"
             style="fill:#9a9a9a;fill-opacity:1;fill-rule:nonzero;stroke:none"
             id="path260"
             inkscape:connector-curvature="0" /><path
             d="m 0,43 h 89 v 1 H 0 Z"
             style="fill:#eeeeee;fill-opacity:1;fill-rule:nonzero;stroke:none"
             id="path262"
             inkscape:connector-curvature="0" /><path
             d="m 88,43 v 1 h 1 v -2"
             style="fill:#eeeeee;fill-opacity:1;fill-rule:nonzero;stroke:none"
             id="path264"
             inkscape:connector-curvature="0" /><path
             d="m 0,42 v 2 l 1,-1 v -1"
             style="fill:#9a9a9a;fill-opacity:1;fill-rule:nonzero;stroke:none"
             id="path266"
             inkscape:connector-curvature="0" /><text
             transform="translate(15.46875,15)"
             style="font-variant:normal;font-weight:normal;font-size:12px;font-family:Helvetica;-inkscape-font-specification:Helvetica;writing-mode:lr-tb;fill:#000000;fill-opacity:1;fill-rule:nonzero;stroke:none"
             id="text270"><tspan
               x="0 7.0078125 14.015625 20.689453 27.363281 34.037109 44.033203 51.041016"
               y="0"
               sodipodi:role="line"
               id="tspan268">&lt;&lt;enum&gt;&gt;</tspan></text>
<text
             transform="translate(15.609375,33)"
             style="font-variant:normal;font-weight:bold;font-size:12px;font-family:Helvetica;-inkscape-font-specification:Helvetica-Bold;writing-mode:lr-tb;fill:#000000;fill-opacity:1;fill-rule:nonzero;stroke:none"
             id="text274"><tspan
               x="0 9.3339844 16.664062 27.333984 30.667969 37.113281 43.787109 51.117188"
               y="0"
               sodipodi:role="line"
               id="tspan272">OdmlType</tspan></text>
<text
             transform="translate(0,61)"
             style="font-variant:normal;font-weight:normal;font-size:12px;font-family:Helvetica;-inkscape-font-specification:Helvetica;writing-mode:lr-tb;fill:#000000;fill-opacity:1;fill-rule:nonzero;stroke:none"
             id="text278"><tspan
               x="0 3.3339844 6.6679688 10.001953 18.005859 24.679688 31.353516 34.019531 40.693359 47.367188"
               y="0"
               sodipodi:role="line"
               id="tspan276">   Boolean</tspan></text>
<text
             transform="translate(0,75)"
             style="font-variant:normal;font-weight:normal;font-size:12px;font-family:Helvetica;-inkscape-font-specification:Helvetica;writing-mode:lr-tb;fill:#000000;fill-opacity:1;fill-rule:nonzero;stroke:none"
             id="text282"><tspan
               x="0 3.3339844 6.6679688 10.001953 13.335938 20.009766"
               y="0"
               sodipodi:role="line"
               id="tspan280">   Int</tspan></text>
<text
             transform="translate(0,89)"
             style="font-variant:normal;font-weight:normal;font-size:12px;font-family:Helvetica;-inkscape-font-specification:Helvetica;writing-mode:lr-tb;fill:#000000;fill-opacity:1;fill-rule:nonzero;stroke:none"
             id="text286"><tspan
               x="0 3.3339844 6.6679688 10.001953 17.332031 19.998047 26.671875 33.345703"
               y="0"
               sodipodi:role="line"
               id="tspan284">   Float</tspan></text>
<text
             transform="translate(0,103)"
             style="font-variant:normal;font-weight:normal;font-size:12px;font-family:Helvetica;-inkscape-font-specification:Helvetica;writing-mode:lr-tb;fill:#000000;fill-opacity:1;fill-rule:nonzero;stroke:none"
             id="text290"><tspan
               x="0 3.3339844 6.6679688 10.001953 18.005859 21.339844 25.335938 28.001953 34.675781"
               y="0"
               sodipodi:role="line"
               id="tspan288">   String</tspan></text>
<text
             transform="translate(0,117)"
             style="font-variant:normal;font-weight:normal;font-size:12px;font-family:Helvetica;-inkscape-font-specification:Helvetica;writing-mode:lr-tb;fill:#000000;fill-opacity:1;fill-rule:nonzero;stroke:none"
             id="text294"><tspan
               x="0 3.3339844 6.6679688 10.001953 16.001953 22.675781 28.675781"
               y="0"
               sodipodi:role="line"
               id="tspan292">   Text</tspan></text>
<text
             transform="translate(0,131)"
             style="font-variant:normal;font-weight:normal;font-size:12px;font-family:Helvetica;-inkscape-font-specification:Helvetica;writing-mode:lr-tb;fill:#000000;fill-opacity:1;fill-rule:nonzero;stroke:none"
             id="text298"><tspan
               x="0 3.3339844 6.6679688 10.001953 18.667969 27.333984"
               y="0"
               sodipodi:role="line"
               id="tspan296">   URL</tspan></text>
<text
             transform="translate(0,145)"
             style="font-variant:normal;font-weight:normal;font-size:12px;font-family:Helvetica;-inkscape-font-specification:Helvetica;writing-mode:lr-tb;fill:#000000;fill-opacity:1;fill-rule:nonzero;stroke:none"
             id="text302"><tspan
               x="0 3.3339844 6.6679688 10.001953 18.005859 24.679688 28.675781 34.675781 41.349609"
               y="0"
               sodipodi:role="line"
               id="tspan300">   Person</tspan></text>
<text
             transform="translate(0,159)"
             style="font-variant:normal;font-weight:normal;font-size:12px;font-family:Helvetica;-inkscape-font-specification:Helvetica;writing-mode:lr-tb;fill:#000000;fill-opacity:1;fill-rule:nonzero;stroke:none"
             id="text306"><tspan
               x="0 3.3339844 6.6679688 10.001953 18.667969 25.341797 28.675781 35.349609 38.683594 41.349609 51.345703"
               y="0"
               sodipodi:role="line"
               id="tspan304">   Datetime</tspan></text>
<text
             transform="translate(0,173)"
             style="font-variant:normal;font-weight:normal;font-size:12px;font-family:Helvetica;-inkscape-font-specification:Helvetica;writing-mode:lr-tb;fill:#000000;fill-opacity:1;fill-rule:nonzero;stroke:none"
             id="text310"><tspan
               x="0 3.3339844 6.6679688 10.001953 18.667969 25.341797 28.675781"
               y="0"
               sodipodi:role="line"
               id="tspan308">   Date</tspan></text>
<text
             transform="translate(0,187)"
             style="font-variant:normal;font-weight:normal;font-size:12px;font-family:Helvetica;-inkscape-font-specification:Helvetica;writing-mode:lr-tb;fill:#000000;fill-opacity:1;fill-rule:nonzero;stroke:none"
             id="text314"><tspan
               x="0 3.3339844 6.6679688 10.001953 16.892578 19.558594 29.554688"
               y="0"
               sodipodi:role="line"
               id="tspan312">   Time</tspan></text>
</g><g
           id="g316"
           transform="matrix(0.71941829,0,0,0.71941829,0.35970914,0.35970914)"><path
             d="M 693.98999,328 H 730 V 270 H 598 v 16"
             style="fill:none;stroke:#3333ff;stroke-width:1;stroke-linecap:butt;stroke-linejoin:miter;stroke-miterlimit:10;stroke-dasharray:none;stroke-opacity:1"
             id="path318"
             inkscape:connector-curvature="0" /><path
             d="m 678.98999,328 7.5,-4.41 7.5,4.41 -7.5,4.41 z"
             style="fill:none;stroke:#3333ff;stroke-width:1;stroke-linecap:butt;stroke-linejoin:miter;stroke-miterlimit:10;stroke-dasharray:none;stroke-opacity:1"
             id="path320"
             inkscape:connector-curvature="0" /></g><g
           id="g322"
           transform="matrix(0.71941829,0,0,0.71941829,423.01794,191.36526)"><path
             d="M 0,0 H 6 V 12 H 0 Z"
             style="fill:#ffffff;fill-opacity:1;fill-rule:nonzero;stroke:none"
             id="path324"
             inkscape:connector-curvature="0" /><text
             transform="translate(0,10)"
             style="font-variant:normal;font-weight:normal;font-size:10px;font-family:Helvetica;-inkscape-font-specification:Helvetica;writing-mode:lr-tb;fill:#000000;fill-opacity:1;fill-rule:nonzero;stroke:none"
             id="text328"><tspan
               x="0"
               y="0"
               id="tspan326">1</tspan></text>
</g><g
           id="g330"
           transform="matrix(0.71941829,0,0,0.71941829,493.52094,223.01967)"><path
             d="M 0,0 H 17 V 12 H 0 Z"
             style="fill:#ffffff;fill-opacity:1;fill-rule:nonzero;stroke:none"
             id="path332"
             inkscape:connector-curvature="0" /><text
             transform="translate(0,10)"
             style="font-variant:normal;font-weight:normal;font-size:10px;font-family:Helvetica;-inkscape-font-specification:Helvetica;writing-mode:lr-tb;fill:#000000;fill-opacity:1;fill-rule:nonzero;stroke:none"
             id="text336"><tspan
               x="0 5.5615234 8.3398438 11.118164"
               y="0"
               sodipodi:role="line"
               id="tspan334">0..n</tspan></text>
</g><g
           id="g338"
           transform="matrix(0.71941829,0,0,0.71941829,0.35970914,0.35970914)"><path
             d="M 502.01001,328 H 488 v -76 h 150 v -45 h -20"
             style="fill:none;stroke:#3333ff;stroke-width:1;stroke-linecap:butt;stroke-linejoin:miter;stroke-miterlimit:10;stroke-dasharray:none;stroke-opacity:1"
             id="path340"
             inkscape:connector-curvature="0" /><path
             d="m 517.01001,328 -7.5,4.41 -7.5,-4.41 7.5,-4.41 z"
             style="fill:none;stroke:#3333ff;stroke-width:1;stroke-linecap:butt;stroke-linejoin:miter;stroke-miterlimit:10;stroke-dasharray:none;stroke-opacity:1"
             id="path342"
             inkscape:connector-curvature="0" /></g><g
           id="g344"
           transform="matrix(0.71941829,0,0,0.71941829,451.79468,151.79726)"><path
             d="M 0,0 H 6 V 12 H 0 Z"
             style="fill:#ffffff;fill-opacity:1;fill-rule:nonzero;stroke:none"
             id="path346"
             inkscape:connector-curvature="0" /><text
             transform="translate(0,10)"
             style="font-variant:normal;font-weight:normal;font-size:10px;font-family:Helvetica;-inkscape-font-specification:Helvetica;writing-mode:lr-tb;fill:#000000;fill-opacity:1;fill-rule:nonzero;stroke:none"
             id="text350"><tspan
               x="0"
               y="0"
               id="tspan348">1</tspan></text>
</g><g
           id="g352"
           transform="matrix(0.71941829,0,0,0.71941829,352.51495,241.00513)"><path
             d="M 0,0 H 17 V 12 H 0 Z"
             style="fill:#ffffff;fill-opacity:1;fill-rule:nonzero;stroke:none"
             id="path354"
             inkscape:connector-curvature="0" /><text
             transform="translate(0,10)"
             style="font-variant:normal;font-weight:normal;font-size:10px;font-family:Helvetica;-inkscape-font-specification:Helvetica;writing-mode:lr-tb;fill:#000000;fill-opacity:1;fill-rule:nonzero;stroke:none"
             id="text358"><tspan
               x="0 5.5615234 8.3398438 11.118164"
               y="0"
               sodipodi:role="line"
               id="tspan356">0..n</tspan></text>
</g><g
           id="g360"
           transform="translate(345,96)"><g
             id="g362" /><g
             id="g376"><g
               clip-path="url(#clipPath366)"
               id="g374"
               style="opacity:0.24705882"><g
                 transform="matrix(0.71941829,0,0,0.71941829,-343.20145,-93.482033)"
                 id="g372"><path
                   d="M 478,131 H 618 V 232 H 478 Z"
                   style="fill:#000000;fill-opacity:1;fill-rule:nonzero;stroke:none"
                   id="path368"
                   inkscape:connector-curvature="0" /><path
                   d="M 478,131 H 618 V 232 H 478 Z"
                   style="fill:none;stroke:#000000;stroke-width:1;stroke-linecap:butt;stroke-linejoin:miter;stroke-miterlimit:10;stroke-dasharray:none;stroke-opacity:1"
                   id="path370"
                   inkscape:connector-curvature="0" /></g></g></g></g><g
           id="g378"
           transform="matrix(0.71941829,0,0,0.71941829,0.35970914,0.35970914)"><path
             d="M 478,131 H 618 V 232 H 478 Z"
             style="fill:#ffffff;fill-opacity:1;fill-rule:nonzero;stroke:none"
             id="path380"
             inkscape:connector-curvature="0" /><path
             d="M 478,131 H 618 V 232 H 478 Z"
             style="fill:none;stroke:#000000;stroke-width:1;stroke-linecap:butt;stroke-linejoin:miter;stroke-miterlimit:10;stroke-dasharray:none;stroke-opacity:1"
             id="path382"
             inkscape:connector-curvature="0" /></g><g
           id="g384"
           transform="matrix(0.71941829,0,0,0.71941829,344.60135,94.963211)"><path
             d="m 0,24 h 139 v 1 H 0 Z"
             style="fill:#9a9a9a;fill-opacity:1;fill-rule:nonzero;stroke:none"
             id="path386"
             inkscape:connector-curvature="0" /><path
             d="m 0,25 h 139 v 1 H 0 Z"
             style="fill:#eeeeee;fill-opacity:1;fill-rule:nonzero;stroke:none"
             id="path388"
             inkscape:connector-curvature="0" /><path
             d="m 138,25 v 1 h 1 v -2"
             style="fill:#eeeeee;fill-opacity:1;fill-rule:nonzero;stroke:none"
             id="path390"
             inkscape:connector-curvature="0" /><path
             d="m 0,24 v 2 l 1,-1 v -1"
             style="fill:#9a9a9a;fill-opacity:1;fill-rule:nonzero;stroke:none"
             id="path392"
             inkscape:connector-curvature="0" /><text
             transform="translate(59.15625,15)"
             style="font-variant:normal;font-weight:bold;font-size:12px;font-family:Helvetica;-inkscape-font-specification:Helvetica-Bold;writing-mode:lr-tb;fill:#000000;fill-opacity:1;fill-rule:nonzero;stroke:none"
             id="text396"><tspan
               x="0 7.3300781 10.664062 13.998047"
               y="0"
               sodipodi:role="line"
               id="tspan394">File</tspan></text>
<text
             transform="translate(0,43)"
             style="font-variant:normal;font-weight:normal;font-size:12px;font-family:Helvetica;-inkscape-font-specification:Helvetica;writing-mode:lr-tb;fill:#000000;fill-opacity:1;fill-rule:nonzero;stroke:none"
             id="text400"><tspan
               x="0 3.3339844 10.341797 13.675781 17.009766 23.683594 27.679688 37.675781 44.349609"
               y="0"
               sodipodi:role="line"
               id="tspan398"> + format</tspan></text>
<text
             transform="translate(0,57)"
             style="font-variant:normal;font-weight:normal;font-size:12px;font-family:Helvetica;-inkscape-font-specification:Helvetica;writing-mode:lr-tb;fill:#000000;fill-opacity:1;fill-rule:nonzero;stroke:none"
             id="text404"><tspan
               x="0 3.3339844 10.341797 13.675781 19.675781 26.349609 30.345703 36.345703 39.011719 45.685547"
               y="0"
               sodipodi:role="line"
               id="tspan402"> + version</tspan></text>
<text
             transform="translate(0,71)"
             style="font-variant:normal;font-weight:normal;font-size:12px;font-family:Helvetica;-inkscape-font-specification:Helvetica;writing-mode:lr-tb;fill:#000000;fill-opacity:1;fill-rule:nonzero;stroke:none"
             id="text408"><tspan
               x="0 3.3339844 10.341797 13.675781 20.349609 27.023438 30.357422 37.03125 40.365234 43.699219 51.703125 54.369141 61.042969 67.042969 73.042969 76.376953"
               y="0"
               sodipodi:role="line"
               id="tspan406"> + data: Block[]</tspan></text>
<text
             transform="translate(0,85)"
             style="font-variant:normal;font-weight:normal;font-size:12px;font-family:Helvetica;-inkscape-font-specification:Helvetica;writing-mode:lr-tb;fill:#000000;fill-opacity:1;fill-rule:nonzero;stroke:none"
             id="text412"><tspan
               x="0 3.3339844 10.341797 13.675781 23.671875 30.345703 33.679688 40.353516 47.027344 53.701172 57.035156 63.708984 67.042969 70.376953 78.380859 85.054688 91.054688 94.388672 97.054688 103.72852 110.40234 113.73633"
               y="0"
               sodipodi:role="line"
               id="tspan410"> + metadata: Section[]</tspan></text>
</g></g></g></g></svg>